<svg width="122" height="121" viewBox="0 0 122 121" fill="none" xmlns="http://www.w3.org/2000/svg">
<g id="Pokeball">
<g id="poke">
<path id="inner" d="M61 114.115C90.6106 114.115 114.615 90.1106 114.615 60.5C114.615 30.8894 90.6106 6.88524 61 6.88524C31.3894 6.88524 7.38519 30.8894 7.38519 60.5C7.38519 90.1106 31.3894 114.115 61 114.115Z" fill="black" stroke="black" stroke-width="0.804222" stroke-linejoin="round"/>
<path id="top" d="M61.0265 4.08421C31.2606 4.08421 6.87818 27.1251 4.73691 56.3444H35.5383C36.5308 50.2615 39.6536 44.7296 44.3486 40.7368C49.0437 36.744 55.0054 34.5503 61.1687 34.5477C67.3438 34.5566 73.3139 36.7646 78.0086 40.776C82.7034 44.7875 85.8159 50.3399 86.7881 56.4381H86.8083V56.3444H117.263C114.815 30.8897 90.5743 4.08421 61.0264 4.08421H61.0265Z" fill="#FF0000" stroke="black" stroke-width="0.846667" stroke-linejoin="round"/>
<path id="middle" d="M61 41.2689C55.8997 41.2689 51.0083 43.2951 47.4018 46.9015C43.7953 50.508 41.7692 55.3994 41.7692 60.4997C41.7691 63.0252 42.2665 65.5259 43.2329 67.8592C44.1993 70.1924 45.6158 72.3125 47.4016 74.0983C49.1873 75.8841 51.3073 77.3007 53.6405 78.2671C55.9738 79.2336 58.4745 79.731 61 79.7311C63.5255 79.731 66.0262 79.2336 68.3594 78.2671C70.6926 77.3007 72.8127 75.8841 74.5984 74.0983C76.3842 72.3125 77.8007 70.1924 78.7671 67.8592C79.7335 65.5259 80.2309 63.0252 80.2308 60.4997C80.2308 55.3994 78.2047 50.508 74.5982 46.9015C70.9917 43.295 66.1003 41.2689 61 41.2689V41.2689ZM61 53.5429C62.8451 53.5428 64.6147 54.2757 65.9195 55.5803C67.2243 56.885 67.9574 58.6546 67.9574 60.4997C67.9575 61.4134 67.7776 62.3181 67.4279 63.1622C67.0783 64.0064 66.5658 64.7734 65.9197 65.4195C65.2737 66.0655 64.5067 66.578 63.6625 66.9276C62.8184 67.2773 61.9137 67.4572 61 67.4572C59.1548 67.4571 57.3853 66.724 56.0806 65.4193C54.7759 64.1145 54.043 62.3449 54.0431 60.4997C54.0432 58.6547 54.7762 56.8852 56.0808 55.5806C57.3855 54.2759 59.1549 53.5429 61 53.5429V53.5429Z" fill="#F2F2F2" stroke="black" stroke-width="0.846667" stroke-linejoin="round"/>
<path id="bottom" d="M4.58368 62.0605C5.42535 92.4989 30.3632 116.916 61.005 116.916C91.5594 116.916 116.44 88.2531 117.416 62.0605H87.0725C86.668 68.6624 83.7607 74.8615 78.9434 79.3938C74.1261 83.9262 67.7615 86.4506 61.1472 86.4523C54.5371 86.4444 48.1785 83.9173 43.3664 79.3855C38.5542 74.8538 35.6504 68.6582 35.2461 62.0605H4.58368Z" fill="#F9F9F9" stroke="black" stroke-width="0.846667" stroke-linejoin="round"/>
</g>
</g>
</svg>
